<svg version="1.2" xmlns="http://www.w3.org/2000/svg" xmlns:xlink="http://www.w3.org/1999/xlink" overflow="visible" preserveAspectRatio="none" viewBox="0 0 24 24" width="30" height="30"><g><path xmlns:default="http://www.w3.org/2000/svg" id="chevron-left" d="M17.2,6.47c0.26-0.25,0.27-0.66,0.02-0.92c-0.01-0.01-0.01-0.01-0.02-0.02l-1.73-1.72  c-0.25-0.26-0.66-0.27-0.92-0.02c-0.01,0.01-0.01,0.01-0.02,0.02L6.8,11.53c-0.26,0.25-0.27,0.66-0.02,0.92  c0.01,0.01,0.01,0.01,0.02,0.02l7.73,7.73c0.25,0.26,0.66,0.27,0.92,0.02c0.01-0.01,0.01-0.01,0.02-0.02l1.73-1.73  c0.26-0.25,0.27-0.66,0.02-0.92c-0.01-0.01-0.01-0.01-0.02-0.02L11.67,12L17.2,6.47L17.2,6.47z" style="fill: rgb(84, 110, 122);" vector-effect="non-scaling-stroke"/></g></svg>